PathFileType	4	(X/Y/Z)	G:\Shared drives\HPL_Drive\Nord Sprinting Study\Kristen_Nord_test\Trimmed_Nord000006.trc
DataRate	CameraRate	NumFrames	NumMarkers	Units	OrigDataRate	OrigDataStartFrame	OrigNumFrames
200.00	200.00	      4	52	mm	200.00	1533	      2043
Frame#	Time	C7			R_Shoulder			L_Shoulder			Sternum			R_humerus			R_elbow_med			R_elbow_lat			R_forearm			R_wrist_radius			R_wrist_ulna			L_humerus			L_elbow_med			L_elbow_lat			L_forearm			L_wrist_radius			L_wrist_ulna			r.ASIS			r.PSIS			r_IC			L.ASIS			L.PSIS			l_IC			r_thigh1			r_thigh2			r_thigh3			r_thigh4			r_thigh5			r_knee			r_mknee			r_shank_antsup			r_sh2			r_sh3			r_sh4			r_ankle			r_mankle			r_calc			r_5meta			r_toe			L_thigh1			L_thigh2			L_thigh3			L_thigh4			L_knee			L_mknee			L_shank_antsup			L_sh2			L_sh3			L_ankle			L_mankle			L_calc			L_5meta			L_toe			
		X1	Y1	Z1	X2	Y2	Z2	X3	Y3	Z3	X4	Y4	Z4	X5	Y5	Z5	X6	Y6	Z6	X7	Y7	Z7	X8	Y8	Z8	X9	Y9	Z9	X10	Y10	Z10	X11	Y11	Z11	X12	Y12	Z12	X13	Y13	Z13	X14	Y14	Z14	X15	Y15	Z15	X16	Y16	Z16	X17	Y17	Z17	X18	Y18	Z18	X19	Y19	Z19	X20	Y20	Z20	X21	Y21	Z21	X22	Y22	Z22	X23	Y23	Z23	X24	Y24	Z24	X25	Y25	Z25	X26	Y26	Z26	X27	Y27	Z27	X28	Y28	Z28	X29	Y29	Z29	X30	Y30	Z30	X31	Y31	Z31	X32	Y32	Z32	X33	Y33	Z33	X34	Y34	Z34	X35	Y35	Z35	X36	Y36	Z36	X37	Y37	Z37	X38	Y38	Z38	X39	Y39	Z39	X40	Y40	Z40	X41	Y41	Z41	X42	Y42	Z42	X43	Y43	Z43	X44	Y44	Z44	X45	Y45	Z45	X46	Y46	Z46	X47	Y47	Z47	X48	Y48	Z48	X49	Y49	Z49	X50	Y50	Z50	X51	Y51	Z51	X52	Y52	Z52	

1533	7.660	1191.22913	827.67267	1127.67493	1315.92932	857.96246	1116.28418	1059.47375	874.71472	1120.64600	1191.64563	930.62518	1033.25781	1466.24768	759.86237	1099.52551	1579.49438	696.89240	1009.86224	1560.16980	660.93341	1078.00562	1602.28687	756.12976	1155.48315	1621.58679	866.78998	1193.98804	1655.50830	838.51440	1211.97473	866.73236	806.71405	1094.78931	760.59698	791.08044	1001.68353	762.25983	744.73077	1064.14734	776.88092	863.24658	1153.72290	807.09491	952.09973	1190.05591	757.22852	947.26563	1201.48926	1319.04370	666.87207	639.94086	1266.95972	590.31909	812.21735	1351.21704	681.89563	747.93420	1082.21350	660.26465	634.82959	1150.38806	588.61951	804.72516	1054.19421	678.52307	728.74347	1386.59729	500.68054	467.00729	1382.71179	434.45581	372.81131	1394.53357	380.86002	375.62732	1392.08655	413.71677	530.94611	1376.88623	348.67447	432.68704	1382.38306	345.48969	310.47394	1258.92407	337.44653	318.52899	1400.72388	208.71057	316.22311	1381.38013	91.33208	327.41492	1402.20349	214.53955	391.60193	1383.45801	102.56586	408.42480	1364.50037	-71.23957	382.30835	1290.89160	-53.60921	344.85739	1302.45911	-87.99646	438.26212	1375.01147	-157.99831	291.57083	1342.94568	-136.18376	236.12222	1024.06641	507.15491	459.78751	1027.78748	428.76923	343.55399	1016.61151	411.11639	532.36444	1026.18591	338.54639	415.58368	1015.35156	334.51920	325.84534	1142.18799	332.15973	306.00964	999.82813	218.96257	311.94031	994.50934	231.88101	402.26096	1003.22217	111.90745	410.41278	1013.06781	-68.28767	382.33340	1092.75281	-51.57206	357.34479	1061.00964	-65.56243	441.01129	1019.68951	-174.48289	298.75589	1065.99182	-160.38905	248.56134	
1534	7.665	1191.14905	828.09637	1127.44543	1315.21680	858.41626	1115.24951	1059.47925	875.11475	1120.35840	1191.62231	931.05859	1032.95117	1466.15466	760.20288	1099.24121	1579.42786	697.14160	1009.46582	1560.03857	661.23248	1077.78735	1602.25085	756.47607	1155.12561	1621.59875	867.20679	1193.51111	1655.52527	838.84076	1211.54492	866.72449	806.98334	1094.60254	760.58606	791.31415	1001.53015	762.27515	744.95087	1064.02612	776.83539	863.50818	1153.60718	807.06866	952.35120	1189.85706	757.19952	947.49548	1201.35303	1319.04480	667.03473	639.83734	1266.90479	590.65967	812.07495	1351.17737	682.19415	747.87939	1082.27722	660.54761	634.66022	1150.42712	588.90387	804.60962	1054.19421	678.81274	728.50073	1386.55090	500.87225	466.96600	1382.67151	434.55887	372.76328	1394.52820	381.00311	375.63541	1392.03687	413.87195	530.90887	1376.91101	348.82059	432.69150	1382.37683	345.52255	310.54776	1258.94580	337.46268	318.54895	1400.65088	208.71608	316.22971	1381.43640	91.37773	327.43292	1402.23450	214.61493	391.61871	1383.49207	102.61436	408.45544	1364.56738	-71.20377	382.29565	1290.99121	-53.58857	344.91620	1302.52271	-87.94452	438.31848	1375.04700	-157.95616	291.64462	1343.02856	-136.19032	236.13684	1024.13843	507.27426	459.63528	1027.78003	428.80478	343.46484	1016.62152	411.23355	532.33441	1026.18140	338.63449	415.59467	1015.36151	334.56107	325.80362	1142.20740	332.18814	305.99838	999.78516	219.00511	311.95410	994.59564	232.27110	402.39981	1003.09637	111.98373	410.42557	1012.81549	-68.20763	382.28366	1092.53198	-51.59466	357.35968	1060.80249	-65.53051	440.99799	1019.47076	-174.42427	298.77005	1065.80017	-160.40028	248.56451	
1535	7.670	1190.93140	828.42615	1127.36487	1315.37146	858.33496	1116.22290	1059.50793	875.95911	1119.00220	1191.47766	931.34210	1032.72144	1466.09094	760.53168	1098.99792	1579.35803	697.35895	1009.38470	1559.90259	661.57941	1077.51245	1602.18042	756.82019	1154.80750	1621.62305	867.55981	1193.05762	1655.46106	839.16144	1211.17639	866.66809	807.26135	1094.51855	760.56042	791.52148	1001.35632	762.22272	745.17615	1063.93005	776.81696	863.72675	1153.48352	806.98553	952.62079	1189.73486	757.09814	947.73785	1201.31213	1319.01538	667.27771	639.70093	1266.83655	590.97314	812.08221	1351.30298	682.30298	747.89520	1082.24609	660.78564	634.46417	1150.33679	589.24884	804.49597	1054.18066	679.11060	728.31726	1386.51306	501.02124	466.86798	1382.67651	434.67630	372.71301	1394.50476	381.14627	375.58899	1392.02942	414.06735	530.89832	1377.02869	348.71252	432.69833	1382.32043	345.55228	310.58832	1258.91565	337.52570	318.53006	1400.68811	208.76169	316.25613	1381.44006	91.38626	327.47510	1402.26904	214.62929	391.62814	1383.52002	102.64190	408.46994	1363.66040	-70.97724	382.51776	1290.82373	-53.53053	345.06055	1302.58862	-87.92034	438.32880	1375.10510	-157.92316	291.70908	1342.98169	-136.10477	236.32237	1024.17004	507.37341	459.53256	1027.75684	428.81567	343.43741	1016.61938	411.49802	532.26062	1026.20007	338.72092	415.58670	1015.09735	334.50119	325.77249	1142.22546	332.17041	306.01486	999.69617	218.97673	311.97833	994.35596	232.01891	402.24863	1003.22571	112.14529	410.56778	1012.58282	-68.11927	382.22360	1092.35522	-51.59332	357.43423	1060.43567	-65.49005	441.09012	1019.19977	-174.42853	298.80261	1065.55640	-160.43745	248.61316	
1536	7.675	1190.84009	828.82983	1127.15515	1314.54614	858.91113	1115.44177	1059.46582	876.35907	1118.83923	1191.42090	931.66656	1032.47424	1465.97571	760.89508	1098.73816	1579.15210	697.56335	1009.15912	1559.73938	661.90613	1077.28992	1602.07300	757.17334	1154.46765	1621.62915	867.88226	1192.65784	1655.36719	839.50647	1210.86328	866.67035	807.53717	1094.35925	760.53638	791.73065	1001.16486	762.19366	745.42358	1063.82141	776.76520	863.96326	1153.36108	806.91650	952.80585	1189.69336	757.02667	947.95166	1201.20142	1318.97607	667.52216	639.59454	1266.79236	591.26263	812.01709	1351.24194	682.57196	747.81207	1082.25793	661.06207	634.27179	1150.78748	589.36414	805.86072	1054.20288	679.40637	728.04779	1386.48486	501.19189	466.79160	1382.65833	434.69888	372.67172	1394.47522	381.24335	375.64789	1391.60217	414.03311	530.71130	1377.03015	348.82037	432.69772	1382.26794	345.61938	310.73648	1258.92102	337.58261	318.56857	1400.67944	208.78749	316.30502	1381.46057	91.41032	327.54858	1402.39807	214.67178	391.69333	1383.55273	102.71188	408.51694	1363.72632	-70.93539	382.54868	1290.82849	-53.44038	345.04971	1302.61255	-87.87187	438.38367	1375.11340	-157.89595	291.83029	1342.93042	-136.08127	236.40248	1024.13635	507.50381	459.34708	1027.80139	428.87915	343.36743	1016.59106	411.63843	532.17609	1026.16199	338.80359	415.56567	1015.36401	334.66360	325.76410	1142.21143	332.15524	306.00436	999.65485	219.13525	311.80997	994.41992	232.41174	402.40768	1003.09729	112.20305	410.60892	1012.34949	-68.06272	382.25894	1092.07202	-51.58951	357.68976	1060.09290	-65.45908	441.17575	1018.93732	-174.36040	298.79874	1065.33679	-160.45027	248.70900	
